<svg width="16" height="16" viewBox="0 0 16 16" fill="none" xmlns="http://www.w3.org/2000/svg">
<circle cx="8" cy="8" r="8" fill="#C30000"/>
<path d="M3.83 11V4.46H4.99V7.43H5.02L7.35 4.46H8.64L6.63 7.01L8.98 11H7.7L5.93 7.92L4.99 9.09V11H3.83ZM11.1068 11.12C10.7668 11.12 10.4301 11.0567 10.0968 10.93C9.77013 10.7967 9.4868 10.6333 9.2468 10.44L9.7868 9.7C10.0068 9.87333 10.2235 10.01 10.4368 10.11C10.6568 10.2033 10.8935 10.25 11.1468 10.25C11.4135 10.25 11.6101 10.1967 11.7368 10.09C11.8635 9.97667 11.9268 9.83333 11.9268 9.66C11.9268 9.56 11.8968 9.47333 11.8368 9.4C11.7768 9.32 11.6968 9.25 11.5968 9.19C11.4968 9.13 11.3835 9.07667 11.2568 9.03C11.1301 8.97667 11.0035 8.92333 10.8768 8.87C10.7168 8.81 10.5535 8.74 10.3868 8.66C10.2201 8.58 10.0701 8.48333 9.9368 8.37C9.81013 8.25667 9.70346 8.12667 9.6168 7.98C9.5368 7.82667 9.4968 7.64667 9.4968 7.44C9.4968 7.00667 9.6568 6.65333 9.9768 6.38C10.2968 6.10667 10.7335 5.97 11.2868 5.97C11.6268 5.97 11.9335 6.03 12.2068 6.15C12.4801 6.27 12.7168 6.40667 12.9168 6.56L12.3868 7.26C12.2135 7.13333 12.0368 7.03333 11.8568 6.96C11.6835 6.88 11.5001 6.84 11.3068 6.84C11.0601 6.84 10.8768 6.89333 10.7568 7C10.6435 7.1 10.5868 7.22667 10.5868 7.38C10.5868 7.48 10.6135 7.56667 10.6668 7.64C10.7268 7.70667 10.8035 7.76667 10.8968 7.82C10.9901 7.87333 11.0968 7.92333 11.2168 7.97C11.3435 8.01667 11.4735 8.06333 11.6068 8.11C11.7735 8.17 11.9401 8.24 12.1068 8.32C12.2735 8.39333 12.4235 8.48667 12.5568 8.6C12.6968 8.71333 12.8068 8.85333 12.8868 9.02C12.9735 9.18 13.0168 9.37333 13.0168 9.6C13.0168 9.81333 12.9735 10.0133 12.8868 10.2C12.8068 10.38 12.6868 10.54 12.5268 10.68C12.3668 10.8133 12.1668 10.92 11.9268 11C11.6868 11.08 11.4135 11.12 11.1068 11.12Z" fill="white"/>
</svg>
